#define font_2x_width 16
#define font_2x_height 120
static char font_2x_bits[] = {
  0x00, 0x00, 0x00, 0x00, 0xF8, 0x03, 0x06, 0x0C, 0x03, 0x18, 0x01, 0x10, 
  0x01, 0x10, 0x03, 0x18, 0x06, 0x0C, 0xF8, 0x03, 0x00, 0x00, 0x00, 0x00, 
  0x00, 0x00, 0x00, 0x00, 0x00, 0x10, 0x02, 0x10, 0x02, 0x10, 0x02, 0x10, 
  0x00, 0x10, 0x00, 0x10, 0x00, 0x10, 0x00, 0x10, 0x00, 0x00, 0x00, 0x00, 
  0x00, 0x00, 0x00, 0x00, 0x04, 0x18, 0x02, 0x14, 0x01, 0x12, 0x01, 0x11, 
  0x81, 0x10, 0x41, 0x10, 0x36, 0x10, 0x08, 0x10, 0x00, 0x00, 0x00, 0x00, 
  0x00, 0x00, 0x00, 0x00, 0x00, 0x08, 0x02, 0x18, 0x01, 0x10, 0x21, 0x10, 
  0x21, 0x10, 0x61, 0x10, 0x52, 0x08, 0x88, 0x07, 0x00, 0x00, 0x00, 0x00, 
  0x00, 0x00, 0x00, 0x00, 0x00, 0x03, 0xC0, 0x02, 0x30, 0x02, 0x0C, 0x02, 
  0x03, 0x12, 0xFF, 0x1F, 0x00, 0x12, 0x00, 0x00, 0x00, 0x00, 0x00, 0x00, 
  0x00, 0x00, 0x00, 0x00, 0x00, 0x08, 0x3F, 0x08, 0x11, 0x10, 0x11, 0x10, 
  0x11, 0x10, 0x11, 0x10, 0x21, 0x08, 0xC0, 0x07, 0x00, 0x00, 0x00, 0x00, 
  0x00, 0x00, 0x00, 0x00, 0x00, 0x00, 0xF8, 0x07, 0xC4, 0x08, 0x62, 0x10, 
  0x21, 0x10, 0x21, 0x10, 0x41, 0x18, 0xC1, 0x0F, 0x00, 0x00, 0x00, 0x00, 
  0x00, 0x00, 0x00, 0x00, 0x03, 0x00, 0x01, 0x00, 0x01, 0x00, 0x01, 0x10, 
  0x01, 0x0E, 0xE1, 0x01, 0x1D, 0x00, 0x03, 0x00, 0x00, 0x00, 0x00, 0x00, 
  0x00, 0x00, 0x00, 0x00, 0x08, 0x07, 0xB6, 0x08, 0x41, 0x10, 0x41, 0x10, 
  0x41, 0x10, 0x41, 0x10, 0xB6, 0x08, 0x08, 0x07, 0x00, 0x00, 0x00, 0x00, 
  0x00, 0x00, 0x00, 0x00, 0x00, 0x00, 0x7E, 0x10, 0x43, 0x10, 0x81, 0x10, 
  0x81, 0x10, 0xC1, 0x08, 0x66, 0x04, 0xFC, 0x03, 0x00, 0x00, 0x00, 0x00, 
  };
